<svg version="1.0" xmlns="http://www.w3.org/2000/svg" viewBox="0 0 968.000000 709.000000" preserveAspectRatio="xMidYMid meet">

									<g transform="translate(0.000000,709.000000) scale(0.100000,-0.100000)" stroke="none">
										<path d="M2520 7069 c-28 -12 -76 -54 -93 -84 -8 -13 -14 -104 -17 -259 l-5
-238 -105 -37 c-801 -283 -1514 -837 -1904 -1480 -156 -257 -275 -552 -334
-831 -45 -208 -56 -340 -56 -645 1 -303 14 -475 55 -712 228 -1320 1115 -2221
2551 -2593 306 -79 636 -130 958 -149 223 -13 2824 -35 3440 -29 504 5 560 10
790 68 522 131 995 439 1345 875 158 197 311 465 394 694 142 386 173 798 89
1189 -81 381 -300 771 -606 1079 -269 270 -567 448 -987 588 -247 83 -451 131
-975 230 -408 77 -618 138 -755 218 -98 57 -194 145 -520 472 -511 513 -746
705 -1100 903 -196 109 -467 215 -662 258 l-83 19 0 160 c-1 209 -16 252 -102
296 -77 39 -176 12 -225 -62 -27 -41 -28 -48 -31 -191 l-4 -148 -158 0 c-207
0 -413 -22 -627 -66 l-33 -6 0 176 c0 193 -6 221 -56 268 -50 46 -124 61 -184
37z m993 -766 l67 -6 0 -278 c0 -217 -3 -279 -12 -279 -7 0 -73 5 -147 10
-160 12 -328 1 -507 -35 -67 -14 -129 -27 -138 -31 -15 -6 -16 16 -14 267 l3
273 28 7 c15 4 92 19 170 33 213 39 408 53 550 39z m612 -115 c66 -21 197 -77
290 -122 362 -178 639 -400 1141 -915 354 -363 511 -490 717 -577 176 -74 316
-108 1012 -244 722 -141 1124 -316 1449 -630 65 -63 146 -149 179 -190 192
-239 322 -509 380 -794 18 -93 22 -144 22 -311 0 -209 -7 -271 -52 -450 -177
-714 -798 -1334 -1526 -1525 -143 -38 -275 -57 -452 -65 -170 -9 -3014 12
-3490 25 -550 15 -930 78 -1385 230 -1191 397 -1870 1198 -2026 2390 -21 167
-31 650 -15 802 38 363 169 733 369 1038 286 437 730 819 1262 1086 133 67
381 174 401 174 5 0 9 -125 9 -277 l0 -278 -134 -68 c-239 -122 -430 -260
-621 -452 -468 -468 -679 -1049 -635 -1750 29 -468 128 -830 322 -1167 388
-678 1157 -1119 2128 -1218 66 -7 717 -14 1770 -20 1447 -8 1680 -7 1780 6
384 50 729 189 1041 420 133 98 325 292 411 414 132 187 229 409 263 604 19
114 19 309 0 422 -42 237 -164 476 -347 681 -253 283 -510 400 -1037 474 -602
83 -707 103 -926 176 -420 138 -744 339 -1350 838 -496 409 -745 575 -1038
695 l-92 37 -3 297 -2 298 32 -7 c18 -4 87 -25 153 -47z m-577 -804 l32 -6 0
-117 c0 -64 5 -133 10 -153 22 -77 89 -128 169 -128 113 0 180 79 181 213 0
44 4 67 12 67 20 0 218 -109 321 -176 140 -92 294 -210 592 -454 625 -513 969
-727 1410 -877 266 -90 439 -125 920 -188 526 -68 695 -133 897 -343 144 -150
242 -318 285 -489 25 -101 23 -313 -5 -415 -122 -448 -533 -836 -1067 -1008
-232 -74 -381 -90 -772 -83 -153 2 -899 8 -1658 13 -1323 8 -1385 9 -1510 29
-457 72 -816 201 -1119 401 -514 339 -798 837 -866 1519 -15 150 -12 422 5
554 73 560 399 1038 925 1360 l95 58 6 -34 c20 -123 157 -185 265 -122 64 37
84 87 84 208 l0 96 65 20 c56 18 212 50 310 65 39 6 371 -2 413 -10z"></path>
										<path d="M4306 3964 c-399 -79 -708 -373 -808 -770 -31 -123 -31 -361 0 -476
52 -192 127 -329 256 -464 188 -200 419 -307 692 -321 511 -27 965 329 1059
832 23 120 16 336 -13 447 -50 186 -135 334 -271 468 -159 158 -337 251 -555
289 -81 15 -276 12 -360 -5z m322 -349 c300 -60 523 -319 539 -625 17 -320
-195 -606 -507 -687 -87 -22 -245 -22 -330 1 -180 49 -350 186 -428 346 -55
112 -73 185 -74 300 -1 207 79 383 235 518 154 134 361 187 565 147z"></path>
									</g>
								</svg>