<svg version="1.0" xmlns="http://www.w3.org/2000/svg" viewBox="0 0 1118.000000 537.000000" preserveAspectRatio="xMidYMid meet">

									<g transform="translate(0.000000,537.000000) scale(0.100000,-0.100000)" stroke="none">
										<path d="M98 5340 c-22 -12 -48 -38 -63 -63 l-25 -44 0 -2542 c0 -2136 2
-2547 14 -2574 16 -39 61 -82 99 -96 19 -8 264 -11 750 -11 688 0 724 1 764
19 26 12 52 35 70 62 l28 42 3 263 3 263 41 -25 c95 -60 289 -131 428 -155
119 -21 345 -16 467 10 234 49 424 145 600 302 213 189 321 256 488 300 114
31 317 31 430 0 163 -44 281 -114 442 -263 201 -187 396 -288 658 -344 122
-26 361 -24 492 4 252 54 450 160 653 348 150 139 274 212 435 255 114 31 317
31 430 0 162 -43 280 -113 434 -255 208 -192 405 -297 666 -352 122 -26 361
-24 492 4 257 55 453 161 668 361 138 128 263 200 420 242 113 31 316 31 430
0 119 -31 267 -108 355 -186 89 -78 140 -104 198 -105 114 0 202 87 202 200 0
74 -18 107 -104 187 -175 163 -391 271 -642 319 -129 25 -339 22 -471 -5 -255
-53 -439 -151 -667 -355 -66 -59 -150 -125 -187 -148 -303 -179 -666 -167
-959 32 -30 21 -101 80 -157 132 -151 140 -292 228 -471 292 -259 93 -584 93
-844 0 -179 -64 -307 -144 -488 -304 -69 -61 -155 -130 -192 -152 -265 -158
-588 -168 -863 -25 -89 46 -153 95 -266 202 -337 320 -823 430 -1273 288 -179
-56 -333 -149 -511 -308 -132 -118 -196 -163 -292 -207 -123 -56 -202 -71
-363 -71 -129 0 -155 3 -233 26 -157 48 -281 121 -399 235 l-48 46 0 344 0
344 63 -34 c180 -99 355 -147 568 -155 173 -7 299 10 456 62 186 62 325 146
488 295 227 208 415 290 665 290 239 0 427 -77 618 -254 141 -129 241 -200
377 -267 361 -177 801 -171 1154 17 111 59 182 111 323 235 234 209 410 278
677 266 238 -10 397 -80 591 -261 209 -195 412 -306 665 -362 110 -24 341 -29
460 -10 266 44 483 154 714 364 210 191 361 259 602 269 248 11 444 -59 634
-226 79 -70 109 -84 175 -84 115 0 200 85 200 200 -1 69 -28 121 -101 187
-137 124 -331 234 -504 284 -141 41 -187 47 -370 47 -162 -1 -191 -3 -288 -28
-244 -61 -417 -157 -622 -347 -113 -104 -212 -170 -318 -210 -132 -51 -203
-63 -357 -57 -153 6 -216 20 -338 78 -101 47 -161 89 -271 192 -194 182 -375
283 -618 344 -98 25 -125 27 -293 27 -168 0 -195 -2 -293 -27 -244 -61 -424
-162 -625 -349 -199 -186 -395 -268 -638 -268 -128 0 -233 20 -337 65 -119 51
-179 91 -290 194 -216 201 -385 296 -634 358 -97 25 -126 27 -288 28 -113 0
-202 -5 -240 -13 -267 -59 -463 -162 -670 -352 -221 -202 -402 -280 -651 -280
-235 0 -434 79 -605 239 l-79 73 0 362 0 361 343 343 342 342 1160 0 c1118 0
1162 1 1202 19 26 12 52 35 70 62 l28 42 3 353 c3 379 0 411 -45 465 -53 63
48 59 -1598 59 l-1505 0 0 193 c0 208 -7 250 -47 298 -52 61 -24 59 -825 59
-708 -1 -734 -2 -770 -20z m1282 -2655 l0 -2325 -510 0 -510 0 0 2325 0 2325
510 0 510 0 0 -2325z m3150 1625 l0 -150 -1395 0 -1395 0 0 150 0 150 1395 0
1395 0 0 -150z m-2620 -508 c0 -4 -38 -45 -85 -92 l-85 -85 0 93 0 92 85 0
c47 0 85 -3 85 -8z"></path>
									</g>
								</svg>