<svg width="0" height="0" class="hidden">
  <symbol xmlns="http://www.w3.org/2000/svg" viewBox="0 0 221.07 221.07" id="Гидромасcажный">
    <path d="M49.132 173.074c-6.49 0-12.97-2.5-17.943-7.475l-.294-.293a17.312 17.312 0 00-24.162-.407 4 4 0 11-5.465-5.842c10.054-9.4 25.551-9.141 35.281.59l.294.293a17.309 17.309 0 0024.161.407l1.382-1.292a25.275 25.275 0 0135.279.592l.294.293a17.31 17.31 0 0024.162.407l1.38-1.291a25.28 25.28 0 0135.281.59l.298.298a17.307 17.307 0 0024.157.402l1.38-1.291a25.279 25.279 0 0135.281.59 3.999 3.999 0 010 5.657 3.998 3.998 0 01-5.656 0 17.311 17.311 0 00-24.16-.405l-1.38 1.291a25.279 25.279 0 01-35.281-.59l-.298-.298a17.307 17.307 0 00-24.157-.402l-1.38 1.291a25.279 25.279 0 01-35.281-.59l-.294-.293a17.31 17.31 0 00-24.161-.407l-1.382 1.292c-4.913 4.595-11.13 6.882-17.336 6.883zm-.001-37.144c-6.489 0-12.969-2.499-17.942-7.474l-.294-.293a17.31 17.31 0 00-24.162-.406 4 4 0 01-5.465-5.843 25.28 25.28 0 0135.281.59l.294.293c4.778 4.779 11.586 6.225 17.589 4.288V67.919c0-6.574-5.348-11.922-11.922-11.922h-.322c-6.574 0-11.922 5.348-11.922 11.922v2.792a4 4 0 01-8 0v-2.792c0-10.985 8.937-19.922 19.922-19.922h.322c10.985 0 19.922 8.937 19.922 19.922v31.105h43.32V67.919c0-6.574-5.348-11.922-11.922-11.922h-.322c-6.573 0-11.922 5.348-11.922 11.922v2.792a4 4 0 01-8 0v-2.792c0-10.985 8.937-19.922 19.922-19.922h.322c10.985 0 19.922 8.937 19.922 19.922v59.639a17.375 17.375 0 008.369-4.355l1.38-1.29a25.278 25.278 0 0135.281.59l.298.298a17.308 17.308 0 0024.157.402l1.38-1.29a25.279 25.279 0 0135.281.59 4 4 0 11-5.656 5.657 17.308 17.308 0 00-24.16-.404l-1.38 1.29c-10.055 9.4-25.552 9.14-35.281-.59l-.298-.298a17.307 17.307 0 00-24.157-.402l-1.38 1.291c-10.056 9.4-25.552 9.14-35.281-.59l-.294-.293a17.309 17.309 0 00-24.161-.407l-1.382 1.292c-4.914 4.594-11.13 6.881-17.337 6.881zm30.592-20.9c6.489 0 12.969 2.499 17.942 7.474l.294.293a17.392 17.392 0 007.793 4.524v-20.297h-43.32v14.845c4.906-4.565 11.103-6.839 17.291-6.839z"></path>
  </symbol>
    <symbol version="1.0" xmlns="http://www.w3.org/2000/svg" viewBox="0 0 968 709" id="Плавательный">
    <path d="M252 2.1c-2.8 1.2-7.6 5.4-9.3 8.4-.8 1.3-1.4 10.4-1.7 25.9l-.5 23.8-10.5 3.7c-80.1 28.3-151.4 83.7-190.4 148C24 237.6 12.1 267.1 6.2 295 1.7 315.8.6 329 .6 359.5.7 389.8 2 407 6.1 430.7c22.8 132 111.5 222.1 255.1 259.3 30.6 7.9 63.6 13 95.8 14.9 22.3 1.3 282.4 3.5 344 2.9 50.4-.5 56-1 79-6.8 52.2-13.1 99.5-43.9 134.5-87.5 15.8-19.7 31.1-46.5 39.4-69.4 14.2-38.6 17.3-79.8 8.9-118.9-8.1-38.1-30-77.1-60.6-107.9-26.9-27-56.7-44.8-98.7-58.8-24.7-8.3-45.1-13.1-97.5-23-40.8-7.7-61.8-13.8-75.5-21.8-9.8-5.7-19.4-14.5-52-47.2-51.1-51.3-74.6-70.5-110-90.3-19.6-10.9-46.7-21.5-66.2-25.8l-8.3-1.9v-16c-.1-20.9-1.6-25.2-10.2-29.6-7.7-3.9-17.6-1.2-22.5 6.2-2.7 4.1-2.8 4.8-3.1 19.1l-.4 14.8H342c-20.7 0-41.3 2.2-62.7 6.6l-3.3.6V32.6c0-19.3-.6-22.1-5.6-26.8-5-4.6-12.4-6.1-18.4-3.7zm99.3 76.6l6.7.6v27.8c0 21.7-.3 27.9-1.2 27.9-.7 0-7.3-.5-14.7-1-16-1.2-32.8-.1-50.7 3.5-6.7 1.4-12.9 2.7-13.8 3.1-1.5.6-1.6-1.6-1.4-26.7l.3-27.3 2.8-.7c1.5-.4 9.2-1.9 17-3.3 21.3-3.9 40.8-5.3 55-3.9zm61.2 11.5c6.6 2.1 19.7 7.7 29 12.2 36.2 17.8 63.9 40 114.1 91.5 35.4 36.3 51.1 49 71.7 57.7 17.6 7.4 31.6 10.8 101.2 24.4 72.2 14.1 112.4 31.6 144.9 63 6.5 6.3 14.6 14.9 17.9 19 19.2 23.9 32.2 50.9 38 79.4 1.8 9.3 2.2 14.4 2.2 31.1 0 20.9-.7 27.1-5.2 45-17.7 71.4-79.8 133.4-152.6 152.5-14.3 3.8-27.5 5.7-45.2 6.5-17 .9-301.4-1.2-349-2.5-55-1.5-93-7.8-138.5-23C121.9 607.3 54 527.2 38.4 408c-2.1-16.7-3.1-65-1.5-80.2 3.8-36.3 16.9-73.3 36.9-103.8 28.6-43.7 73-81.9 126.2-108.6 13.3-6.7 38.1-17.4 40.1-17.4.5 0 .9 12.5.9 27.7v27.8l-13.4 6.8c-23.9 12.2-43 26-62.1 45.2-46.8 46.8-67.9 104.9-63.5 175 2.9 46.8 12.8 83 32.2 116.7C173 565 249.9 609.1 347 619c6.6.7 71.7 1.4 177 2 144.7.8 168 .7 178-.6 38.4-5 72.9-18.9 104.1-42 13.3-9.8 32.5-29.2 41.1-41.4 13.2-18.7 22.9-40.9 26.3-60.4 1.9-11.4 1.9-30.9 0-42.2-4.2-23.7-16.4-47.6-34.7-68.1-25.3-28.3-51-40-103.7-47.4-60.2-8.3-70.7-10.3-92.6-17.6-42-13.8-74.4-33.9-135-83.8C457.9 176.6 433 160 403.7 148l-9.2-3.7-.3-29.7-.2-29.8 3.2.7c1.8.4 8.7 2.5 15.3 4.7zm-57.7 80.4l3.2.6v11.7c0 6.4.5 13.3 1 15.3 2.2 7.7 8.9 12.8 16.9 12.8 11.3 0 18-7.9 18.1-21.3 0-4.4.4-6.7 1.2-6.7 2 0 21.8 10.9 32.1 17.6 14 9.2 29.4 21 59.2 45.4 62.5 51.3 96.9 72.7 141 87.7 26.6 9 43.9 12.5 92 18.8 52.6 6.8 69.5 13.3 89.7 34.3 14.4 15 24.2 31.8 28.5 48.9 2.5 10.1 2.3 31.3-.5 41.5C825 522 783.9 560.8 730.5 578c-23.2 7.4-38.1 9-77.2 8.3-15.3-.2-89.9-.8-165.8-1.3-132.3-.8-138.5-.9-151-2.9-45.7-7.2-81.6-20.1-111.9-40.1-51.4-33.9-79.8-83.7-86.6-151.9-1.5-15-1.2-42.2.5-55.4 7.3-56 39.9-103.8 92.5-136l9.5-5.8.6 3.4c2 12.3 15.7 18.5 26.5 12.2 6.4-3.7 8.4-8.7 8.4-20.8v-9.6l6.5-2c5.6-1.8 21.2-5 31-6.5 3.9-.6 37.1.2 41.3 1z"></path>
    <path d="M430.6 312.6c-39.9 7.9-70.8 37.3-80.8 77-3.1 12.3-3.1 36.1 0 47.6 5.2 19.2 12.7 32.9 25.6 46.4 18.8 20 41.9 30.7 69.2 32.1 51.1 2.7 96.5-32.9 105.9-83.2 2.3-12 1.6-33.6-1.3-44.7-5-18.6-13.5-33.4-27.1-46.8-15.9-15.8-33.7-25.1-55.5-28.9-8.1-1.5-27.6-1.2-36 .5zm32.2 34.9c30 6 52.3 31.9 53.9 62.5 1.7 32-19.5 60.6-50.7 68.7-8.7 2.2-24.5 2.2-33-.1-18-4.9-35-18.6-42.8-34.6-5.5-11.2-7.3-18.5-7.4-30-.1-20.7 7.9-38.3 23.5-51.8 15.4-13.4 36.1-18.7 56.5-14.7z"></path>
  </symbol>
  <symbol version="1.0" xmlns="http://www.w3.org/2000/svg" viewBox="0 0 1118 537" id="Спортивный">
    <path d="M9.8 3C7.6 4.2 5 6.8 3.5 9.3L1 13.7v254.2c0 213.6.2 254.7 1.4 257.4 1.6 3.9 6.1 8.2 9.9 9.6 1.9.8 26.4 1.1 75 1.1 68.8 0 72.4-.1 76.4-1.9 2.6-1.2 5.2-3.5 7-6.2l2.8-4.2.3-26.3.3-26.3 4.1 2.5c9.5 6 28.9 13.1 42.8 15.5 11.9 2.1 34.5 1.6 46.7-1 23.4-4.9 42.4-14.5 60-30.2 21.3-18.9 32.1-25.6 48.8-30 11.4-3.1 31.7-3.1 43 0 16.3 4.4 28.1 11.4 44.2 26.3 20.1 18.7 39.6 28.8 65.8 34.4 12.2 2.6 36.1 2.4 49.2-.4 25.2-5.4 45-16 65.3-34.8 15-13.9 27.4-21.2 43.5-25.5 11.4-3.1 31.7-3.1 43 0 16.2 4.3 28 11.3 43.4 25.5 20.8 19.2 40.5 29.7 66.6 35.2 12.2 2.6 36.1 2.4 49.2-.4 25.7-5.5 45.3-16.1 66.8-36.1 13.8-12.8 26.3-20 42-24.2 11.3-3.1 31.6-3.1 43 0 11.9 3.1 26.7 10.8 35.5 18.6 8.9 7.8 14 10.4 19.8 10.5 11.4 0 20.2-8.7 20.2-20 0-7.4-1.8-10.7-10.4-18.7-17.5-16.3-39.1-27.1-64.2-31.9-12.9-2.5-33.9-2.2-47.1.5-25.5 5.3-43.9 15.1-66.7 35.5-6.6 5.9-15 12.5-18.7 14.8-30.3 17.9-66.6 16.7-95.9-3.2-3-2.1-10.1-8-15.7-13.2-15.1-14-29.2-22.8-47.1-29.2-25.9-9.3-58.4-9.3-84.4 0C648.9 398 636.1 406 618 422c-6.9 6.1-15.5 13-19.2 15.2-26.5 15.8-58.8 16.8-86.3 2.5-8.9-4.6-15.3-9.5-26.6-20.2-33.7-32-82.3-43-127.3-28.8-17.9 5.6-33.3 14.9-51.1 30.8-13.2 11.8-19.6 16.3-29.2 20.7-12.3 5.6-20.2 7.1-36.3 7.1-12.9 0-15.5-.3-23.3-2.6-15.7-4.8-28.1-12.1-39.9-23.5l-4.8-4.6v-68.8l6.3 3.4c18 9.9 35.5 14.7 56.8 15.5 17.3.7 29.9-1 45.6-6.2 18.6-6.2 32.5-14.6 48.8-29.5 22.7-20.8 41.5-29 66.5-29 23.9 0 42.7 7.7 61.8 25.4 14.1 12.9 24.1 20 37.7 26.7 36.1 17.7 80.1 17.1 115.4-1.7 11.1-5.9 18.2-11.1 32.3-23.5 23.4-20.9 41-27.8 67.7-26.6 23.8 1 39.7 8 59.1 26.1 20.9 19.5 41.2 30.6 66.5 36.2 11 2.4 34.1 2.9 46 1 26.6-4.4 48.3-15.4 71.4-36.4 21-19.1 36.1-25.9 60.2-26.9 24.8-1.1 44.4 5.9 63.4 22.6 7.9 7 10.9 8.4 17.5 8.4 11.5 0 20-8.5 20-20-.1-6.9-2.8-12.1-10.1-18.7-13.7-12.4-33.1-23.4-50.4-28.4-14.1-4.1-18.7-4.7-37-4.7-16.2.1-19.1.3-28.8 2.8-24.4 6.1-41.7 15.7-62.2 34.7-11.3 10.4-21.2 17-31.8 21-13.2 5.1-20.3 6.3-35.7 5.7-15.3-.6-21.6-2-33.8-7.8-10.1-4.7-16.1-8.9-27.1-19.2-19.4-18.2-37.5-28.3-61.8-34.4-9.8-2.5-12.5-2.7-29.3-2.7s-19.5.2-29.3 2.7c-24.4 6.1-42.4 16.2-62.5 34.9-19.9 18.6-39.5 26.8-63.8 26.8-12.8 0-23.3-2-33.7-6.5-11.9-5.1-17.9-9.1-29-19.4-21.6-20.1-38.5-29.6-63.4-35.8-9.7-2.5-12.6-2.7-28.8-2.8-11.3 0-20.2.5-24 1.3-26.7 5.9-46.3 16.2-67 35.2-22.1 20.2-40.2 28-65.1 28-23.5 0-43.4-7.9-60.5-23.9l-7.9-7.3v-72.3l34.3-34.3 34.2-34.2h116c111.8 0 116.2-.1 120.2-1.9 2.6-1.2 5.2-3.5 7-6.2l2.8-4.2.3-35.3c.3-37.9 0-41.1-4.5-46.5-5.3-6.3 4.8-5.9-159.8-5.9H174V36.7c0-20.8-.7-25-4.7-29.8C164.1.8 166.9 1 86.8 1c-70.8.1-73.4.2-77 2zM138 268.5V501H36V36h102v232.5zM453 106v15H174V91h279v15zm-262 50.8c0 .4-3.8 4.5-8.5 9.2l-8.5 8.5V156h8.5c4.7 0 8.5.3 8.5.8z"></path>
  </symbol>
  <symbol xmlns="http://www.w3.org/2000/svg" viewBox="0 0 451 451" id="magnifying-glass">
    <path d="M447.05 428l-109.6-109.6c29.4-33.8 47.2-77.9 47.2-126.1C384.65 86.2 298.35 0 192.35 0 86.25 0 .05 86.3.05 192.3s86.3 192.3 192.3 192.3c48.2 0 92.3-17.8 126.1-47.2L428.05 447c2.6 2.6 6.1 4 9.5 4s6.9-1.3 9.5-4c5.2-5.2 5.2-13.8 0-19zM26.95 192.3c0-91.2 74.2-165.3 165.3-165.3 91.2 0 165.3 74.2 165.3 165.3s-74.1 165.4-165.3 165.4c-91.1 0-165.3-74.2-165.3-165.4z"></path>
  </symbol>
</svg>
